<svg xmlns="http://www.w3.org/2000/svg" viewBox="0 0 175 30.3" enable-background="new 0 0 175 30.3"><style type="text/css">.st0{fill:#E95F26;} .st1{enable-background:new ;}</style><g id="Symbols"><g id="Rapid7-logo"><g id="Group"><path id="Shape" d="M19 13.1H11.9l1.5-7H20c2.2 0 3.4 1.2 3.4 2.9 0 2.2-1.6 4.1-4.4 4.1m11.7-4.8C30.7 3.5 27 0 20.6 0H7.4L1 29.3h7.3l2.2-10.1h4.3l4.3 10.1h7.3l-4.5-10.5c5.4-.9 8.8-5.3 8.8-10.5"/><path id="Shape_1_" d="M43.4 18.3l6.3-10.8L52 18.3h-8.6zM46.7 0l-17 29.3H37l2.8-4.9h13.5l1.1 4.9h7.3L55.3 0h-8.6z"/><path id="Shape_2_" d="M82.7 13.1h-6.5l1.5-7h5.7C85.6 6.1 87 7.2 87 9c0 2.2-1.7 4.1-4.3 4.1M84.1 0H71.8l-6.4 29.3h7.3l2.2-10.1h8.2c7 0 11.2-5.3 11.2-10.8C94.2 3.5 90.4 0 84.1 0"/><path id="Shape_3_" d="M108.4 0h-7.3l-6.5 29.3h7.3z"/><path id="Shape_4_" d="M160.8 0h-23.1c.4.4.7.7 1 1.1 2.6 3.1 4 7.1 4 11.4 0 6.7-2.8 12.7-7.3 16.8h14.1l6.7-16.7h-8.4l1.4-6.5h16.7l-8.8 23.2h3.4c8 0 13.4-6.6 13.4-14.7C174 6.5 168.8 0 160.8 0" class="st0"/><path id="Shape_5_" d="M120.1 23.2h-4l3.8-17h3.8c4.2 0 6.5 3.1 6.5 7.1-.1 5.2-3.8 9.9-10.1 9.9m14.6-18.4C132.2 1.7 128 0 123.1 0h-9.4l-6.4 29.3h11.8c4.6 0 8.1-1 10.8-2.6 5.5-3.3 7.4-9.2 7.4-14.1.1-3.2-.9-5.8-2.6-7.8"/></g></g></g><path d="M0 0" class="st1"/></svg>